<?xml version="1.0" standalone="no"?>
<!DOCTYPE svg PUBLIC "-//W3C//DTD SVG 20010904//EN"
 "http://www.w3.org/TR/2001/REC-SVG-20010904/DTD/svg10.dtd">
<svg version="1.0" xmlns="http://www.w3.org/2000/svg"
 width="512.000000pt" height="512.000000pt" viewBox="0 0 512.000000 512.000000"
 preserveAspectRatio="xMidYMid meet">
<metadata>
Created by potrace 1.14, written by Peter Selinger 2001-2017
</metadata>
<g transform="translate(0.000000,512.000000) scale(0.100000,-0.100000)"
fill="#000000" stroke="none">
<path d="M1525 5114 c-233 -35 -432 -112 -628 -241 -93 -61 -309 -277 -370
-370 -108 -163 -183 -340 -223 -523 -24 -108 -27 -436 -5 -545 35 -177 122
-392 214 -527 l45 -65 -47 -23 c-183 -88 -375 -308 -450 -516 -51 -139 -64
-229 -58 -383 3 -81 12 -162 23 -201 103 -387 426 -675 818 -729 42 -6 185
-11 317 -11 193 0 239 -3 239 -13 0 -32 64 -138 109 -180 118 -111 272 -136
418 -68 96 46 170 132 207 244 4 14 18 17 82 17 69 0 75 -2 69 -18 -54 -134
-73 -256 -56 -372 24 -159 82 -278 191 -390 73 -74 153 -125 262 -166 68 -26
84 -28 218 -29 133 0 151 2 218 27 204 74 354 225 426 427 28 79 30 96 30 216
0 120 -2 137 -31 218 l-31 87 343 0 c192 0 378 5 421 11 359 50 667 300 788
640 47 130 60 223 53 376 -10 249 -96 449 -271 632 -84 87 -163 145 -267 196
-76 38 -76 38 -93 96 -27 87 -83 176 -166 260 -61 62 -94 85 -170 122 -97 47
-210 77 -292 77 -41 0 -44 2 -70 48 -129 230 -389 463 -639 572 l-57 25 -22
78 c-66 229 -233 490 -414 647 -186 162 -370 259 -615 322 -105 27 -133 31
-301 33 -102 2 -198 1 -215 -1z m1202 -1145 c184 -24 389 -101 544 -205 149
-99 310 -276 401 -441 22 -40 48 -78 58 -83 10 -6 53 -10 94 -10 264 0 452
-146 533 -414 10 -33 25 -63 33 -67 8 -4 58 -28 111 -54 172 -82 294 -204 379
-380 61 -126 82 -218 81 -360 0 -133 -23 -234 -81 -351 -119 -243 -345 -410
-610 -453 -38 -6 -232 -11 -461 -11 l-397 0 -142 218 c-78 119 -181 277 -229
349 -93 144 -119 165 -169 140 -24 -11 -163 -215 -409 -599 l-68 -107 -128 -1
c-113 0 -128 2 -133 17 -19 64 -79 162 -269 448 -66 98 -121 110 -171 37 -119
-170 -277 -425 -287 -459 l-11 -43 -241 0 c-132 0 -269 5 -305 11 -265 43
-491 210 -610 453 -58 118 -81 218 -82 351 0 142 21 234 82 360 85 176 207
298 379 380 53 26 103 50 111 54 8 4 23 34 33 67 52 172 149 296 280 358 87
41 154 56 253 56 41 0 84 4 94 10 10 5 36 42 58 82 22 40 61 102 87 136 65 89
71 104 52 140 -14 29 -13 31 20 65 34 33 36 34 65 20 36 -19 47 -15 149 59
170 122 379 203 594 231 65 8 237 6 312 -4z"/>
<path d="M3755 2712 c-11 -2 -26 -9 -32 -14 -26 -21 -418 -636 -440 -690 -80
-197 -35 -419 116 -568 36 -36 93 -80 127 -98 286 -150 640 -9 746 298 34 95
32 258 -3 350 -15 39 -108 194 -234 388 -214 328 -228 345 -280 334z"/>
</g>
</svg>
